<svg width="65" height="11" viewBox="0 0 65 11" fill="none" xmlns="http://www.w3.org/2000/svg">
<path d="M2.83345 7.858V6.626H7.63545V7.858H2.83345ZM8.23745 10L5.53545 2.916L5.21345 1.852H5.29745L4.97545 2.916L2.27345 10H0.705445L4.37345 0.48H6.20745L9.87545 10H8.23745ZM11.1421 10V0.48H12.7101V10H11.1421ZM15.1181 10H12.2761V8.754H15.0761C15.6268 8.754 16.0608 8.61867 16.3781 8.348C16.6955 8.068 16.8541 7.69933 16.8541 7.242C16.8541 6.78467 16.6815 6.42067 16.3361 6.15C16.0001 5.87933 15.5288 5.744 14.9221 5.744H12.2761V4.526H14.5721C15.1321 4.526 15.5615 4.4 15.8601 4.148C16.1681 3.896 16.3221 3.56467 16.3221 3.154C16.3221 2.71533 16.1681 2.37 15.8601 2.118C15.5615 1.85667 15.1415 1.726 14.6001 1.726H12.2761V0.48H14.6421C15.6501 0.48 16.4481 0.713333 17.0361 1.18C17.6335 1.64667 17.9321 2.27667 17.9321 3.07C17.9321 3.62067 17.7595 4.08733 17.4141 4.47C17.0688 4.84333 16.5741 5.086 15.9301 5.198V4.848C16.7515 4.94133 17.3768 5.20733 17.8061 5.646C18.2448 6.07533 18.4641 6.62133 18.4641 7.284C18.4641 8.152 18.1655 8.824 17.5681 9.3C16.9801 9.76667 16.1635 10 15.1181 10ZM21.3028 2.832C21.3028 3.14933 21.3822 3.406 21.5408 3.602C21.6995 3.78867 21.9188 3.938 22.1988 4.05C22.4788 4.15267 22.7868 4.24133 23.1228 4.316C23.4682 4.38133 23.8228 4.45133 24.1868 4.526C24.5508 4.59133 24.9008 4.68467 25.2368 4.806C25.5822 4.918 25.8902 5.07667 26.1608 5.282C26.4408 5.478 26.6602 5.73467 26.8188 6.052C26.9868 6.36933 27.0708 6.77067 27.0708 7.256C27.0708 7.88133 26.9122 8.41333 26.5948 8.852C26.2868 9.29067 25.8622 9.622 25.3208 9.846C24.7795 10.07 24.1588 10.182 23.4588 10.182C22.7588 10.182 22.1335 10.0747 21.5828 9.86C21.0415 9.64533 20.5888 9.31867 20.2248 8.88C19.8702 8.44133 19.6275 7.89067 19.4968 7.228H21.1348C21.2748 7.76933 21.5408 8.18467 21.9328 8.474C22.3248 8.754 22.8382 8.894 23.4728 8.894C24.1262 8.894 24.6208 8.76333 24.9568 8.502C25.2928 8.24067 25.4608 7.89533 25.4608 7.466C25.4608 7.13 25.3815 6.85933 25.2228 6.654C25.0642 6.43933 24.8448 6.276 24.5648 6.164C24.2848 6.04267 23.9722 5.94467 23.6268 5.87C23.2908 5.786 22.9408 5.70667 22.5768 5.632C22.2128 5.55733 21.8582 5.464 21.5128 5.352C21.1768 5.24 20.8688 5.09067 20.5888 4.904C20.3182 4.708 20.0988 4.456 19.9308 4.148C19.7722 3.84 19.6928 3.44333 19.6928 2.958C19.6928 2.482 19.8235 2.04333 20.0848 1.642C20.3462 1.23133 20.7242 0.904666 21.2188 0.661999C21.7228 0.419333 22.3388 0.298 23.0668 0.298C23.6922 0.298 24.2662 0.405333 24.7888 0.62C25.3208 0.825333 25.7642 1.14733 26.1188 1.586C26.4735 2.01533 26.7068 2.58 26.8188 3.28H25.1528C25.0222 2.692 24.7748 2.26267 24.4108 1.992C24.0468 1.72133 23.5848 1.586 23.0248 1.586C22.4835 1.586 22.0588 1.70267 21.7508 1.936C21.4522 2.16 21.3028 2.45867 21.3028 2.832ZM32.8294 10.182C31.8868 10.182 31.0701 9.986 30.3794 9.594C29.6981 9.19267 29.1708 8.62333 28.7974 7.886C28.4334 7.14867 28.2514 6.27133 28.2514 5.254C28.2514 4.23667 28.4334 3.35933 28.7974 2.622C29.1708 1.87533 29.6981 1.30133 30.3794 0.899999C31.0701 0.498666 31.8868 0.298 32.8294 0.298C33.7628 0.298 34.5701 0.498666 35.2514 0.899999C35.9421 1.30133 36.4694 1.87533 36.8334 2.622C37.2068 3.35933 37.3934 4.23667 37.3934 5.254C37.3934 6.27133 37.2068 7.14867 36.8334 7.886C36.4694 8.62333 35.9421 9.19267 35.2514 9.594C34.5701 9.986 33.7628 10.182 32.8294 10.182ZM32.8294 8.866C33.4454 8.866 33.9728 8.72133 34.4114 8.432C34.8594 8.13333 35.2001 7.718 35.4334 7.186C35.6761 6.64467 35.7974 6.00067 35.7974 5.254C35.7974 4.498 35.6761 3.84933 35.4334 3.308C35.2001 2.76667 34.8594 2.35133 34.4114 2.062C33.9728 1.76333 33.4454 1.614 32.8294 1.614C32.2041 1.614 31.6674 1.76333 31.2194 2.062C30.7808 2.35133 30.4401 2.76667 30.1974 3.308C29.9641 3.84933 29.8474 4.498 29.8474 5.254C29.8474 6.00067 29.9641 6.64467 30.1974 7.186C30.4401 7.718 30.7808 8.13333 31.2194 8.432C31.6674 8.72133 32.2041 8.866 32.8294 8.866ZM39.1011 10V0.48H40.6691V10H39.1011ZM40.2351 10V8.726H45.2751V10H40.2351ZM54.1282 6.374C54.1282 7.158 53.9696 7.83467 53.6522 8.404C53.3349 8.97333 52.8869 9.412 52.3082 9.72C51.7389 10.028 51.0529 10.182 50.2502 10.182C49.4476 10.182 48.7569 10.028 48.1782 9.72C47.5996 9.412 47.1516 8.97333 46.8342 8.404C46.5262 7.83467 46.3722 7.158 46.3722 6.374V0.48H47.9402V6.374C47.9402 7.16733 48.1456 7.79267 48.5562 8.25C48.9669 8.698 49.5316 8.922 50.2502 8.922C50.9782 8.922 51.5429 8.69333 51.9442 8.236C52.3549 7.77867 52.5602 7.158 52.5602 6.374V0.48H54.1282V6.374ZM58.6162 10V0.48H60.1842V10H58.6162ZM55.4382 1.796V0.48H63.3482V1.796H55.4382ZM62.994 10V8.278H64.73V10H62.994Z" fill="#1E1E1E"/>
</svg>
